<?xml version="1.0" encoding="UTF-8"?>
<!DOCTYPE svg PUBLIC "-//W3C//DTD SVG 1.1//EN" "http://www.w3.org/Graphics/SVG/1.1/DTD/svg11.dtd">
<svg xmlns="http://www.w3.org/2000/svg" version="1.1" width="2272px" height="972px" style="shape-rendering:geometricPrecision; text-rendering:geometricPrecision; image-rendering:optimizeQuality; fill-rule:evenodd; clip-rule:evenodd" xmlns:xlink="http://www.w3.org/1999/xlink">
<g><path style="opacity:1" fill="#deedc8" d="M 531.5,47.5 C 520.986,47.1724 510.653,47.5058 500.5,48.5C 498.621,48.6068 498.288,48.1068 499.5,47C 510.341,46.1745 521.008,46.3412 531.5,47.5 Z"/></g>
<g><path style="opacity:1" fill="#7fba29" d="M 500.5,48.5 C 510.653,47.5058 520.986,47.1724 531.5,47.5C 679.463,51.4894 818.796,87.9894 949.5,157C 1048.95,211.607 1131.28,285.44 1196.5,378.5C 1196.43,380.027 1197.09,381.027 1198.5,381.5C 1214.25,403.326 1228.25,426.326 1240.5,450.5C 1222.01,451.497 1203.34,451.83 1184.5,451.5C 1175.81,451.831 1167.14,451.498 1158.5,450.5C 1119.96,387.938 1073.62,331.605 1019.5,281.5C 1019.03,280.094 1018.03,279.427 1016.5,279.5C 1005.81,271.136 995.142,262.803 984.5,254.5C 984.027,253.094 983.027,252.427 981.5,252.5C 974.052,248.225 966.719,243.725 959.5,239C 955.143,236.649 950.81,234.649 946.5,233C 978.269,258.935 1007.6,287.435 1034.5,318.5C 1034.43,320.027 1035.09,321.027 1036.5,321.5C 1038.17,322.5 1039.5,323.833 1040.5,325.5C 1040.43,327.027 1041.09,328.027 1042.5,328.5C 1043.83,329.167 1044.83,330.167 1045.5,331.5C 1045.43,333.027 1046.09,334.027 1047.5,334.5C 1077.78,369.681 1103.12,408.348 1123.5,450.5C 1057.3,451.838 991.137,453.505 925,455.5C 857.714,434.961 799.547,399.794 750.5,350C 714.475,314.042 682.642,274.876 655,232.5C 635.936,201.762 617.269,170.762 599,139.5C 588.981,123.461 577.981,108.128 566,93.5C 557.573,84.5683 548.74,76.2349 539.5,68.5C 539.027,67.0937 538.027,66.427 536.5,66.5C 525.337,58.9183 513.337,52.9183 500.5,48.5 Z"/></g>
<g><path style="opacity:1" fill="#c4de9a" d="M 536.5,66.5 C 538.027,66.427 539.027,67.0937 539.5,68.5C 537.973,68.573 536.973,67.9063 536.5,66.5 Z"/></g>
<g><path style="opacity:1" fill="#b2d57e" d="M 1731.5,152.5 C 1743.66,151.34 1755.99,151.173 1768.5,152C 1767.76,153.039 1766.76,153.539 1765.5,153.5C 1754.35,152.505 1743.01,152.172 1731.5,152.5 Z"/></g>
<g><path style="opacity:1" fill="#7fba29" d="M 1731.5,152.5 C 1743.01,152.172 1754.35,152.505 1765.5,153.5C 1746.89,160.399 1731.05,171.399 1718,186.5C 1708.93,197.638 1700.6,209.305 1693,221.5C 1671.91,259.362 1648.58,295.695 1623,330.5C 1598.13,361.036 1570.3,388.536 1539.5,413C 1510.57,432.795 1479.24,447.795 1445.5,458C 1400.51,456.847 1355.51,455.513 1310.5,454C 1307.77,453.818 1305.11,453.318 1302.5,452.5C 1319.06,417.998 1340.06,386.665 1365.5,358.5C 1366.91,358.027 1367.57,357.027 1367.5,355.5C 1373.16,348.509 1379.16,341.843 1385.5,335.5C 1389.17,333.833 1391.83,331.167 1393.5,327.5C 1398.11,324.564 1402.11,320.898 1405.5,316.5C 1414.01,307.83 1423.01,299.663 1432.5,292C 1428.04,293.392 1423.71,295.392 1419.5,298C 1380.19,324.644 1346.02,356.81 1317,394.5C 1302.58,413.751 1288.75,433.418 1275.5,453.5C 1266.21,435.743 1256.54,418.243 1246.5,401C 1266.98,370.008 1290.98,341.841 1318.5,316.5C 1321.76,314.906 1324.43,312.573 1326.5,309.5C 1351.79,286.019 1379.12,265.185 1408.5,247C 1508.17,188.66 1615.84,157.16 1731.5,152.5 Z"/></g>
<g><path style="opacity:1" fill="#c4de9a" d="M 981.5,252.5 C 983.027,252.427 984.027,253.094 984.5,254.5C 982.973,254.573 981.973,253.906 981.5,252.5 Z"/></g>
<g><path style="opacity:1" fill="#c3de98" d="M 1016.5,279.5 C 1018.03,279.427 1019.03,280.094 1019.5,281.5C 1017.97,281.573 1016.97,280.906 1016.5,279.5 Z"/></g>
<g><path style="opacity:1" fill="#f1f7e6" d="M 1433.5,291.5 C 1433.52,289.972 1434.18,289.472 1435.5,290C 1434.96,290.717 1434.29,291.217 1433.5,291.5 Z"/></g>
<g><path style="opacity:1" fill="#aed276" d="M 1326.5,309.5 C 1324.43,312.573 1321.76,314.906 1318.5,316.5C 1320.57,313.427 1323.24,311.094 1326.5,309.5 Z"/></g>
<g><path style="opacity:1" fill="#c3de98" d="M 1034.5,318.5 C 1035.91,318.973 1036.57,319.973 1036.5,321.5C 1035.09,321.027 1034.43,320.027 1034.5,318.5 Z"/></g>
<g><path style="opacity:1" fill="#b6d784" d="M 1405.5,316.5 C 1402.11,320.898 1398.11,324.564 1393.5,327.5C 1396.89,323.102 1400.89,319.436 1405.5,316.5 Z"/></g>
<g><path style="opacity:1" fill="#c3de98" d="M 1040.5,325.5 C 1041.91,325.973 1042.57,326.973 1042.5,328.5C 1041.09,328.027 1040.43,327.027 1040.5,325.5 Z"/></g>
<g><path style="opacity:1" fill="#b9d989" d="M 1393.5,327.5 C 1391.83,331.167 1389.17,333.833 1385.5,335.5C 1387.83,332.5 1390.5,329.833 1393.5,327.5 Z"/></g>
<g><path style="opacity:1" fill="#c3de98" d="M 1045.5,331.5 C 1046.91,331.973 1047.57,332.973 1047.5,334.5C 1046.09,334.027 1045.43,333.027 1045.5,331.5 Z"/></g>
<g><path style="opacity:1" fill="#c3de98" d="M 1367.5,355.5 C 1367.57,357.027 1366.91,358.027 1365.5,358.5C 1365.43,356.973 1366.09,355.973 1367.5,355.5 Z"/></g>
<g><path style="opacity:1" fill="#c4de9a" d="M 1196.5,378.5 C 1197.91,378.973 1198.57,379.973 1198.5,381.5C 1197.09,381.027 1196.43,380.027 1196.5,378.5 Z"/></g>
<g><path style="opacity:1" fill="#c4df9d" d="M 1240.5,450.5 C 1241.04,450.56 1241.38,450.893 1241.5,451.5C 1222.34,452.828 1203.34,452.828 1184.5,451.5C 1203.34,451.83 1222.01,451.497 1240.5,450.5 Z"/></g>
<g><path style="opacity:1" fill="#293464" d="M 2216.5,592.5 C 2215.43,593.434 2214.1,593.768 2212.5,593.5C 2010.87,563.154 1808.2,542.988 1604.5,533C 1247.67,514.424 891.006,517.091 534.5,541C 374.086,551.805 214.419,569.305 55.5,593.5C 54.209,593.737 53.209,593.404 52.5,592.5C 132.419,571.148 213.419,554.315 295.5,542C 472.243,515.426 649.91,498.426 828.5,491C 1131.33,477.016 1433.66,484.016 1735.5,512C 1867.95,524.302 1999.28,543.968 2129.5,571C 2158.82,577.413 2187.82,584.58 2216.5,592.5 Z"/></g>
<g><path style="opacity:1" fill="#9196af" d="M 2216.5,592.5 C 2220.72,593.053 2224.72,594.22 2228.5,596C 2223.01,595.695 2217.67,594.862 2212.5,593.5C 2214.1,593.768 2215.43,593.434 2216.5,592.5 Z"/></g>
<g><path style="opacity:1" fill="#8b90ab" d="M 52.5,592.5 C 53.209,593.404 54.209,593.737 55.5,593.5C 50.679,594.97 45.679,595.804 40.5,596C 44.2634,594.136 48.2634,592.969 52.5,592.5 Z"/></g>
<g><path style="opacity:1" fill="#deedc8" d="M 332.5,607.5 C 308.5,606.167 284.5,606.167 260.5,607.5C 272.148,606.168 284.148,605.501 296.5,605.5C 308.852,605.501 320.852,606.168 332.5,607.5 Z"/></g>
<g><path style="opacity:1" fill="#80ba2b" d="M 332.5,607.5 C 368.105,687.044 403.439,766.711 438.5,846.5C 417.192,848.489 395.526,849.156 373.5,848.5C 366.886,832.94 360.553,817.274 354.5,801.5C 318.167,801.5 281.833,801.5 245.5,801.5C 239.833,817.5 234.167,833.5 228.5,849.5C 206.833,849.5 185.167,849.5 163.5,849.5C 195.267,768.63 227.6,687.963 260.5,607.5C 284.5,606.167 308.5,606.167 332.5,607.5 Z M 296.5,666.5 C 310.051,696.452 323.051,726.786 335.5,757.5C 311.167,758.833 286.833,758.833 262.5,757.5C 274.237,727.286 285.57,696.953 296.5,666.5 Z"/></g>
<g><path style="opacity:1" fill="#9a9fb5" d="M 1664.5,625.5 C 1663.51,633.316 1663.17,641.316 1663.5,649.5C 1662.34,641.01 1662.18,632.343 1663,623.5C 1663.72,624.044 1664.22,624.711 1664.5,625.5 Z"/></g>
<g><path style="opacity:1" fill="#2f3868" d="M 1664.5,625.5 C 1669.13,628.798 1673.47,632.464 1677.5,636.5C 1677.43,638.027 1678.09,639.027 1679.5,639.5C 1683.43,643.597 1685.43,648.597 1685.5,654.5C 1684.98,659.718 1683.65,664.718 1681.5,669.5C 1677.34,670.256 1673.17,670.923 1669,671.5C 1668.5,671.167 1668,670.833 1667.5,670.5C 1665.14,663.692 1663.81,656.692 1663.5,649.5C 1663.17,641.316 1663.51,633.316 1664.5,625.5 Z"/></g>
<g><path style="opacity:1" fill="#293464" d="M 1105.5,711.5 C 1104.96,711.56 1104.62,711.893 1104.5,712.5C 1107.09,713.48 1109.75,713.813 1112.5,713.5C 1137.99,714.349 1163.33,716.849 1188.5,721C 1201.04,723.219 1212.04,728.386 1221.5,736.5C 1221.43,738.027 1222.09,739.027 1223.5,739.5C 1224.17,739.5 1224.5,739.833 1224.5,740.5C 1224.43,742.027 1225.09,743.027 1226.5,743.5C 1229.74,748.423 1231.08,753.923 1230.5,760C 1230.46,772.458 1226.29,783.292 1218,792.5C 1202.01,808.086 1183.84,820.586 1163.5,830C 1138.67,842.054 1112.5,849.221 1085,851.5C 1077.26,851.788 1070.09,850.122 1063.5,846.5C 1063.03,845.094 1062.03,844.427 1060.5,844.5C 1050.63,837.458 1044.8,827.791 1043,815.5C 1041,788.524 1039.33,761.524 1038,734.5C 1037.06,724.082 1034.56,714.082 1030.5,704.5C 1030.71,702.821 1030.05,701.821 1028.5,701.5C 1023.45,691.451 1015.45,685.117 1004.5,682.5C 1005.51,676.808 1007.85,671.808 1011.5,667.5C 1012.91,667.027 1013.57,666.027 1013.5,664.5C 1021.17,654.495 1028.84,644.495 1036.5,634.5C 1040.97,637.137 1045.3,639.97 1049.5,643C 1051.37,643.985 1053.37,644.485 1055.5,644.5C 1071.6,642.133 1087.77,640.466 1104,639.5C 1112.62,638.691 1120.79,640.191 1128.5,644C 1135.51,650.709 1137.01,658.543 1133,667.5C 1125.57,683.376 1116.41,698.042 1105.5,711.5 Z M 1086.5,694.5 C 1083.91,695.419 1081.91,697.086 1080.5,699.5C 1073.44,704.453 1065.94,708.786 1058,712.5C 1048.68,672.484 1063.85,657.318 1103.5,667C 1099.22,677.091 1093.56,686.258 1086.5,694.5 Z M 1202.5,766.5 C 1201.09,766.973 1200.43,767.973 1200.5,769.5C 1199.17,770.167 1198.17,771.167 1197.5,772.5C 1193.83,775.5 1190.5,778.833 1187.5,782.5C 1170.6,796.126 1151.93,806.959 1131.5,815C 1116.9,820.611 1101.9,822.277 1086.5,820C 1075.47,817.094 1068.31,810.261 1065,799.5C 1057.26,764.445 1071.1,744.612 1106.5,740C 1124.58,738.006 1142.58,738.673 1160.5,742C 1176.49,745.081 1192.16,749.247 1207.5,754.5C 1206.39,758.723 1204.72,762.723 1202.5,766.5 Z"/></g>
<g><path style="opacity:1" fill="#9196b0" d="M 1677.5,636.5 C 1678.91,636.973 1679.57,637.973 1679.5,639.5C 1678.09,639.027 1677.43,638.027 1677.5,636.5 Z"/></g>
<g><path style="opacity:1" fill="#9499b2" d="M 1013.5,664.5 C 1013.57,666.027 1012.91,667.027 1011.5,667.5C 1011.43,665.973 1012.09,664.973 1013.5,664.5 Z"/></g>
<g><path style="opacity:1" fill="#7fba2a" d="M 655.5,685.5 C 672.5,685.5 689.5,685.5 706.5,685.5C 706.167,700.848 706.501,716.181 707.5,731.5C 708.298,731.043 708.631,730.376 708.5,729.5C 711.641,721.059 715.974,713.392 721.5,706.5C 722.906,706.027 723.573,705.027 723.5,703.5C 737.323,681.881 755.989,676.048 779.5,686C 784.001,688.416 788.334,691.083 792.5,694C 793.804,694.804 794.471,695.971 794.5,697.5C 790.06,712.432 785.394,727.266 780.5,742C 773.578,738.214 766.245,734.88 758.5,732C 750.053,729.445 742.053,730.445 734.5,735C 722.784,746.917 713.951,760.75 708,776.5C 707.5,800.831 707.333,825.164 707.5,849.5C 690.167,849.5 672.833,849.5 655.5,849.5C 655.5,794.833 655.5,740.167 655.5,685.5 Z"/></g>
<g><path style="opacity:1" fill="#80bb2c" d="M 816.5,710.5 C 819.764,708.906 822.431,706.573 824.5,703.5C 836.416,692.71 850.416,685.877 866.5,683C 901.498,676.191 932.498,684.191 959.5,707C 975.208,723.776 982.875,743.776 982.5,767C 979.909,814.267 955.243,842.267 908.5,851C 878.038,856.319 850.371,849.986 825.5,832C 801.753,810.769 792.253,784.269 797,752.5C 798.966,736.243 805.466,722.243 816.5,710.5 Z M 884.5,712.5 C 901.97,711.308 914.137,718.642 921,734.5C 923.121,739.982 924.454,745.649 925,751.5C 926.578,767.447 925.245,783.114 921,798.5C 913.281,816.279 899.781,823.446 880.5,820C 868.859,817.027 861.026,809.86 857,798.5C 852.747,783.795 851.413,768.795 853,753.5C 854.085,739.831 859.585,728.331 869.5,719C 874.142,715.74 879.142,713.573 884.5,712.5 Z"/></g>
<g><path style="opacity:1" fill="#9fcb5e" d="M 655.5,685.5 C 672.659,684.503 689.992,684.17 707.5,684.5C 707.171,699.676 707.504,714.676 708.5,729.5C 708.631,730.376 708.298,731.043 707.5,731.5C 706.501,716.181 706.167,700.848 706.5,685.5C 689.5,685.5 672.5,685.5 655.5,685.5 Z"/></g>
<g><path style="opacity:1" fill="#2a3464" d="M 1429.5,697.5 C 1429.43,699.027 1430.09,700.027 1431.5,700.5C 1437.97,718.588 1432.97,732.755 1416.5,743C 1404.61,749.409 1391.94,753.409 1378.5,755C 1364.5,757 1350.5,759 1336.5,761C 1320.49,761.4 1304.49,762.067 1288.5,763C 1268.44,765.74 1259.61,777.24 1262,797.5C 1264.15,811.654 1272.32,819.82 1286.5,822C 1298.19,823.606 1309.86,823.272 1321.5,821C 1346.83,816.417 1371.83,810.417 1396.5,803C 1406.39,800.725 1416.39,800.058 1426.5,801C 1427.43,801.388 1428.09,802.055 1428.5,803C 1425.68,811.301 1420.68,817.968 1413.5,823C 1406.89,827.136 1399.89,830.469 1392.5,833C 1361.3,841.311 1329.64,846.811 1297.5,849.5C 1286.15,849.706 1275.15,847.873 1264.5,844C 1261.76,842.974 1259.43,841.474 1257.5,839.5C 1257.03,838.094 1256.03,837.427 1254.5,837.5C 1244.79,828.743 1239.29,817.743 1238,804.5C 1236.31,777.063 1245.14,753.73 1264.5,734.5C 1269.44,731.23 1273.77,727.23 1277.5,722.5C 1296.8,703.85 1319.8,692.017 1346.5,687C 1365.75,683.604 1385.09,682.937 1404.5,685C 1414.54,686.017 1422.87,690.184 1429.5,697.5 Z M 1375.5,709.5 C 1381.49,710.076 1387.49,710.576 1393.5,711C 1397.72,711.375 1401.72,712.375 1405.5,714C 1389.72,727.378 1371.39,734.712 1350.5,736C 1337.02,737.174 1323.68,736.341 1310.5,733.5C 1330.1,719.527 1351.76,711.527 1375.5,709.5 Z"/></g>
<g><path style="opacity:1" fill="#2a3464" d="M 1769.5,725.5 C 1772.09,724.581 1774.09,722.914 1775.5,720.5C 1796.37,701.238 1821.03,689.738 1849.5,686C 1868.18,682.824 1886.85,682.824 1905.5,686C 1929.91,693.323 1936.41,708.489 1925,731.5C 1916.74,741.392 1906.24,747.892 1893.5,751C 1855.26,759.177 1816.6,763.51 1777.5,764C 1763.74,768.159 1757.08,777.493 1757.5,792C 1756.75,806.843 1763.42,816.509 1777.5,821C 1783.29,822.12 1789.12,822.953 1795,823.5C 1809.98,822.36 1824.82,820.193 1839.5,817C 1858.84,811.999 1878.17,806.999 1897.5,802C 1906.49,800.278 1915.49,800.111 1924.5,801.5C 1919.84,814.329 1911.17,823.496 1898.5,829C 1893.91,830.864 1889.24,832.53 1884.5,834C 1858.09,840.415 1831.43,845.415 1804.5,849C 1790.23,850.382 1776.23,849.049 1762.5,845C 1746.08,837.345 1736.58,824.512 1734,806.5C 1732.18,773.482 1744.01,746.482 1769.5,725.5 Z M 1900.5,712.5 C 1900.83,713.167 1901.17,713.833 1901.5,714.5C 1881.51,730.107 1858.67,737.44 1833,736.5C 1824.11,736.51 1815.27,735.844 1806.5,734.5C 1806.5,733.833 1806.5,733.167 1806.5,732.5C 1815.62,727.437 1824.96,722.604 1834.5,718C 1855.97,709.655 1877.97,707.822 1900.5,712.5 Z"/></g>
<g><path style="opacity:1" fill="#80bb2c" d="M 628.5,684.5 C 628.5,696.167 628.5,707.833 628.5,719.5C 620.41,719.167 613.077,719.501 606.5,720.5C 619.975,749.304 613.975,773.138 588.5,792C 584.286,794.274 579.953,796.274 575.5,798C 559.146,800.919 542.813,803.919 526.5,807C 521.593,810.908 521.259,815.074 525.5,819.5C 525.821,821.048 526.821,821.715 528.5,821.5C 543.409,823.953 558.409,825.786 573.5,827C 596.212,828.425 612.379,839.258 622,859.5C 629.245,884.104 622.412,903.604 601.5,918C 581.154,927.736 559.654,932.236 537,931.5C 518.038,931.568 499.538,928.734 481.5,923C 468.511,918.002 458.677,909.502 452,897.5C 446.79,882.853 449.29,869.853 459.5,858.5C 461.749,857.92 463.415,856.587 464.5,854.5C 465.574,853.115 466.907,851.949 468.5,851C 475.626,847.102 482.959,843.768 490.5,841C 474.281,835.006 469.781,824.172 477,808.5C 482.633,801.767 489.8,797.767 498.5,796.5C 499.922,796.291 501.255,795.791 502.5,795C 501.552,794.517 500.552,794.351 499.5,794.5C 483.55,791.111 471.383,782.445 463,768.5C 453.126,745.682 456.292,725.015 472.5,706.5C 475.764,704.906 478.431,702.573 480.5,699.5C 485.648,694.752 491.648,691.252 498.5,689C 505.065,687.154 511.731,685.82 518.5,685C 555.165,684.5 591.832,684.333 628.5,684.5 Z M 528.5,716.5 C 545.975,714.148 557.808,721.148 564,737.5C 566.214,756.262 558.381,768.429 540.5,774C 517.497,773.997 506.331,762.497 507,739.5C 509.936,727.735 517.103,720.068 528.5,716.5 Z M 531.5,861.5 C 540.888,861.702 550.222,862.535 559.5,864C 567.4,865.259 572.9,869.426 576,876.5C 576.732,883.784 573.899,889.284 567.5,893C 554.495,899.122 540.828,901.122 526.5,899C 517.46,898.536 509.294,895.703 502,890.5C 496.472,882.256 497.639,875.09 505.5,869C 513.759,864.658 522.426,862.158 531.5,861.5 Z"/></g>
<g><path style="opacity:1" fill="#dfeec9" d="M 628.5,684.5 C 629.495,696.322 629.828,708.322 629.5,720.5C 621.833,720.5 614.167,720.5 606.5,720.5C 613.077,719.501 620.41,719.167 628.5,719.5C 628.5,707.833 628.5,696.167 628.5,684.5 Z"/></g>
<g><path style="opacity:1" fill="#6e7395" d="M 1086.5,694.5 C 1085.09,696.914 1083.09,698.581 1080.5,699.5C 1081.91,697.086 1083.91,695.419 1086.5,694.5 Z"/></g>
<g><path style="opacity:1" fill="#9a9eb6" d="M 1429.5,697.5 C 1430.91,697.973 1431.57,698.973 1431.5,700.5C 1430.09,700.027 1429.43,699.027 1429.5,697.5 Z"/></g>
<g><path style="opacity:1" fill="#8f92ad" d="M 1028.5,701.5 C 1030.05,701.821 1030.71,702.821 1030.5,704.5C 1029.6,703.71 1028.93,702.71 1028.5,701.5 Z"/></g>
<g><path style="opacity:1" fill="#acd173" d="M 480.5,699.5 C 478.431,702.573 475.764,704.906 472.5,706.5C 474.569,703.427 477.236,701.094 480.5,699.5 Z"/></g>
<g><path style="opacity:1" fill="#c4de9a" d="M 723.5,703.5 C 723.573,705.027 722.906,706.027 721.5,706.5C 721.427,704.973 722.094,703.973 723.5,703.5 Z"/></g>
<g><path style="opacity:1" fill="#add275" d="M 824.5,703.5 C 822.431,706.573 819.764,708.906 816.5,710.5C 818.569,707.427 821.236,705.094 824.5,703.5 Z"/></g>
<g><path style="opacity:1" fill="#b3b7c8" d="M 1105.5,711.5 C 1107.83,712.167 1110.17,712.833 1112.5,713.5C 1109.75,713.813 1107.09,713.48 1104.5,712.5C 1104.62,711.893 1104.96,711.56 1105.5,711.5 Z"/></g>
<g><path style="opacity:1" fill="#b9bdcc" d="M 1900.5,712.5 C 1902.42,712.711 1902.76,713.377 1901.5,714.5C 1901.17,713.833 1900.83,713.167 1900.5,712.5 Z"/></g>
<g><path style="opacity:1" fill="#2a3464" d="M 1990.5,758.5 C 1989.24,758.461 1988.24,758.961 1987.5,760C 1989.13,760.494 1990.8,760.66 1992.5,760.5C 2023.52,763.402 2054.52,766.569 2085.5,770C 2094.6,771.359 2102.43,775.193 2109,781.5C 2112.43,788.305 2112.1,794.972 2108,801.5C 2098.85,812.308 2087.68,820.474 2074.5,826C 2054.83,832.333 2035.17,838.667 2015.5,845C 1994.43,851.636 1981.09,844.47 1975.5,823.5C 2006.38,815.778 2037.05,807.111 2067.5,797.5C 2070.17,796.833 2070.17,796.167 2067.5,795.5C 2055.14,791.528 2042.48,789.028 2029.5,788C 2003.18,786.864 1976.85,786.197 1950.5,786C 1941.68,782.387 1937.01,775.72 1936.5,766C 1936.5,763.516 1937.16,761.349 1938.5,759.5C 1939.91,759.027 1940.57,758.027 1940.5,756.5C 1942,754.164 1944,752.331 1946.5,751C 1966.67,743.162 1986.34,734.162 2005.5,724C 2018.58,717.687 2031.91,717.02 2045.5,722C 2049.18,723.841 2052.52,726.174 2055.5,729C 2034.02,739.323 2012.35,749.157 1990.5,758.5 Z"/></g>
<g><path style="opacity:1" fill="#6d7294" d="M 1775.5,720.5 C 1774.09,722.914 1772.09,724.581 1769.5,725.5C 1770.91,723.086 1772.91,721.419 1775.5,720.5 Z"/></g>
<g><path style="opacity:1" fill="#696e92" d="M 1277.5,722.5 C 1273.77,727.23 1269.44,731.23 1264.5,734.5C 1268.23,729.77 1272.56,725.77 1277.5,722.5 Z"/></g>
<g><path style="opacity:1" fill="#2b3565" d="M 1468.5,744.5 C 1470.75,743.92 1472.42,742.587 1473.5,740.5C 1485.8,728.916 1500.46,724.416 1517.5,727C 1532.59,730.592 1541.26,740.092 1543.5,755.5C 1528.86,756.28 1514.19,756.446 1499.5,756C 1487.87,757.293 1480.04,763.46 1476,774.5C 1472.33,789.176 1471.83,804.01 1474.5,819C 1475.6,834.38 1468.93,844.546 1454.5,849.5C 1443.7,811.579 1438.7,772.912 1439.5,733.5C 1444.2,734.901 1448.87,736.401 1453.5,738C 1457.62,741.15 1461.45,744.65 1465,748.5C 1466.4,747.269 1467.57,745.936 1468.5,744.5 Z"/></g>
<g><path style="opacity:1" fill="#2a3565" d="M 1548.5,750.5 C 1547.89,744.729 1548.55,739.396 1550.5,734.5C 1554.95,735.195 1559.28,736.362 1563.5,738C 1567,741.5 1570.5,745 1574,748.5C 1576.37,745.961 1578.87,743.628 1581.5,741.5C 1583.75,740.92 1585.42,739.587 1586.5,737.5C 1599.52,727.38 1614.18,724.213 1630.5,728C 1642.94,732.611 1650.61,741.445 1653.5,754.5C 1652.62,755.251 1651.62,755.751 1650.5,756C 1639.49,756.62 1628.49,756.453 1617.5,755.5C 1597.21,755.287 1585.71,765.287 1583,785.5C 1583.18,800.496 1583.18,815.496 1583,830.5C 1579.94,840.915 1573.27,846.915 1563,848.5C 1555.02,816.281 1550.19,783.614 1548.5,750.5 Z"/></g>
<g><path style="opacity:1" fill="#bfc2d0" d="M 1697.5,729.5 C 1698.21,728.596 1699.21,728.263 1700.5,728.5C 1700.5,738.5 1700.5,748.5 1700.5,758.5C 1700.16,748.624 1699.16,738.957 1697.5,729.5 Z"/></g>
<g><path style="opacity:1" fill="#2c3666" d="M 1697.5,729.5 C 1699.16,738.957 1700.16,748.624 1700.5,758.5C 1702.73,778.121 1704.56,797.787 1706,817.5C 1707.33,818.833 1708.67,820.167 1710,821.5C 1711.01,829 1710.34,836.333 1708,843.5C 1707.17,844.333 1706.33,845.167 1705.5,846C 1699.86,847.361 1694.19,848.528 1688.5,849.5C 1684.55,829.376 1682.72,809.042 1683,788.5C 1681.23,776.697 1679.73,764.863 1678.5,753C 1678.19,747.773 1679.19,742.939 1681.5,738.5C 1682.91,738.027 1683.57,737.027 1683.5,735.5C 1687.69,732.542 1692.36,730.542 1697.5,729.5 Z"/></g>
<g><path style="opacity:1" fill="#bdc0cf" d="M 1806.5,732.5 C 1806.5,733.167 1806.5,733.833 1806.5,734.5C 1804.07,734.214 1804.07,733.548 1806.5,732.5 Z"/></g>
<g><path style="opacity:1" fill="#9499b2" d="M 1221.5,736.5 C 1222.91,736.973 1223.57,737.973 1223.5,739.5C 1222.09,739.027 1221.43,738.027 1221.5,736.5 Z"/></g>
<g><path style="opacity:1" fill="#9a9eb6" d="M 1683.5,735.5 C 1683.57,737.027 1682.91,738.027 1681.5,738.5C 1681.43,736.973 1682.09,735.973 1683.5,735.5 Z"/></g>
<g><path style="opacity:1" fill="#717597" d="M 1586.5,737.5 C 1585.42,739.587 1583.75,740.92 1581.5,741.5C 1582.58,739.413 1584.25,738.08 1586.5,737.5 Z"/></g>
<g><path style="opacity:1" fill="#999db5" d="M 1224.5,740.5 C 1225.91,740.973 1226.57,741.973 1226.5,743.5C 1225.09,743.027 1224.43,742.027 1224.5,740.5 Z"/></g>
<g><path style="opacity:1" fill="#8287a5" d="M 1473.5,740.5 C 1472.42,742.587 1470.75,743.92 1468.5,744.5C 1469.58,742.413 1471.25,741.08 1473.5,740.5 Z"/></g>
<g><path style="opacity:1" fill="#b7bbcb" d="M 1550.5,734.5 C 1548.55,739.396 1547.89,744.729 1548.5,750.5C 1547.51,745.025 1547.18,739.358 1547.5,733.5C 1548.79,733.263 1549.79,733.596 1550.5,734.5 Z"/></g>
<g><path style="opacity:1" fill="#8b8fab" d="M 1940.5,756.5 C 1940.57,758.027 1939.91,759.027 1938.5,759.5C 1938.43,757.973 1939.09,756.973 1940.5,756.5 Z"/></g>
<g><path style="opacity:1" fill="#bec1d0" d="M 1990.5,758.5 C 1991.17,759.167 1991.83,759.833 1992.5,760.5C 1990.8,760.66 1989.13,760.494 1987.5,760C 1988.24,758.961 1989.24,758.461 1990.5,758.5 Z"/></g>
<g><path style="opacity:1" fill="#878ba8" d="M 1202.5,766.5 C 1202.57,768.027 1201.91,769.027 1200.5,769.5C 1200.43,767.973 1201.09,766.973 1202.5,766.5 Z"/></g>
<g><path style="opacity:1" fill="#7e83a2" d="M 1197.5,772.5 C 1195.17,776.833 1191.83,780.167 1187.5,782.5C 1190.5,778.833 1193.83,775.5 1197.5,772.5 Z"/></g>
<g><path style="opacity:1" fill="#d0e5b1" d="M 499.5,794.5 C 500.552,794.351 501.552,794.517 502.5,795C 501.255,795.791 499.922,796.291 498.5,796.5C 498.833,795.833 499.167,795.167 499.5,794.5 Z"/></g>
<g><path style="opacity:1" fill="#9a9eb6" d="M 2067.5,795.5 C 2070.17,796.167 2070.17,796.833 2067.5,797.5C 2067.5,796.833 2067.5,796.167 2067.5,795.5 Z"/></g>
<g><path style="opacity:1" fill="#c6e09e" d="M 525.5,819.5 C 526.71,819.932 527.71,820.599 528.5,821.5C 526.821,821.715 525.821,821.048 525.5,819.5 Z"/></g>
<g><path style="opacity:1" fill="#999db5" d="M 1254.5,837.5 C 1256.03,837.427 1257.03,838.094 1257.5,839.5C 1255.97,839.573 1254.97,838.906 1254.5,837.5 Z"/></g>
<g><path style="opacity:1" fill="#999db5" d="M 1060.5,844.5 C 1062.03,844.427 1063.03,845.094 1063.5,846.5C 1061.97,846.573 1060.97,845.906 1060.5,844.5 Z"/></g>
<g><path style="opacity:1" fill="#bedc94" d="M 438.5,846.5 C 439.404,847.209 439.737,848.209 439.5,849.5C 417.327,849.831 395.327,849.497 373.5,848.5C 395.526,849.156 417.192,848.489 438.5,846.5 Z"/></g>
<g><path style="opacity:1" fill="#b1d47c" d="M 464.5,854.5 C 463.415,856.587 461.749,857.92 459.5,858.5C 460.585,856.413 462.251,855.08 464.5,854.5 Z"/></g>
</svg>
